<svg xmlns="http://www.w3.org/2000/svg" width="39.5" height="39.5" viewBox="1519.106 1619.106 39.5 39.5"><g data-name="facebook"><path d="M1553.669 1619.106h-29.625a4.942 4.942 0 0 0-4.938 4.938v29.625a4.943 4.943 0 0 0 4.938 4.937h29.625a4.943 4.943 0 0 0 4.937-4.937v-29.625a4.943 4.943 0 0 0-4.937-4.938Z" fill="#1976d2" fill-rule="evenodd" data-name="Path 58"/><path d="M1552.435 1638.856h-6.172v-4.937c0-1.363 1.106-1.235 2.468-1.235h2.47v-6.172h-4.938a7.406 7.406 0 0 0-7.407 7.407v4.937h-4.937v6.172h4.937v13.578h7.407v-13.578h3.703l2.469-6.172Z" fill="#fafafa" fill-rule="evenodd" data-name="Path 59"/></g></svg>