<svg xmlns="http://www.w3.org/2000/svg" width="39.5" height="39.5" viewBox="1630.2 1619.106 39.5 39.5"><g data-name="instagram"><path d="M27.156 0H12.344C5.528 0 0 5.528 0 12.344v14.812C0 33.973 5.528 39.5 12.344 39.5h14.812c6.817 0 12.344-5.527 12.344-12.344V12.344C39.5 5.528 33.973 0 27.156 0Zm8.641 27.156c0 4.765-3.876 8.641-8.64 8.641H12.343c-4.765 0-8.64-3.876-8.64-8.64V12.343c0-4.765 3.875-8.64 8.64-8.64h14.812c4.765 0 8.641 3.875 8.641 8.64v14.812Z" fill-rule="evenodd" fill="url(&quot;#a&quot;)" transform="translate(1630.2 1619.106)" data-name="Path 60"/><path d="M137.875 128c-5.453 0-9.875 4.422-9.875 9.875 0 5.454 4.422 9.875 9.875 9.875 5.454 0 9.875-4.421 9.875-9.875 0-5.453-4.421-9.875-9.875-9.875Zm0 16.047a6.18 6.18 0 0 1-6.172-6.172 6.179 6.179 0 0 1 6.172-6.172 6.179 6.179 0 0 1 6.172 6.172 6.18 6.18 0 0 1-6.172 6.172Z" fill-rule="evenodd" fill="url(&quot;#b&quot;)" transform="translate(1512.076 1500.981)" data-name="Path 61"/><path d="M0 1.216a1.316 1.316 0 1 1 0 .1z" fill-rule="evenodd" fill="url(&quot;#c&quot;)" transform="translate(1659.25 1626.925)" data-name="Ellipse 1"/></g><defs><linearGradient x1="-.09" y1="1.239" x2="-.064" y2="1.264" id="a"><stop stop-color="#ffc107" offset="0"/><stop stop-color="#f44336" offset=".507"/><stop stop-color="#9c27b0" offset=".99"/></linearGradient><linearGradient x1="-.665" y1="1.992" x2="-.643" y2="2.014" id="b"><stop stop-color="#ffc107" offset="0"/><stop stop-color="#f44336" offset=".507"/><stop stop-color="#9c27b0" offset=".99"/></linearGradient><linearGradient x1="-12.08" y1="15.925" x2="-12.058" y2="15.947" id="c"><stop stop-color="#ffc107" offset="0"/><stop stop-color="#f44336" offset=".507"/><stop stop-color="#9c27b0" offset=".99"/></linearGradient></defs></svg>