<svg xmlns="http://www.w3.org/2000/svg" width="45.708" height="37.495" viewBox="633 893 45.708 37.495"><g data-name="stadium"><g data-name="Group 10"><g data-name="Group 9"><path d="M655.854 921.568a.893.893 0 1 0 0 1.786.893.893 0 0 0 0-1.786Z" fill="#178a1f" fill-rule="evenodd" data-name="Path 45"/></g></g><g data-name="Group 12"><g data-name="Group 11"><path d="M673.084 903.95v-3.808h.893a4.434 4.434 0 0 0 3.156-1.308 4.435 4.435 0 0 0 1.307-3.156c0-.493-.4-.893-.892-.893h-5.357c-.493 0-.893.4-.893.893v7.801c-2.64-.626-5.825-1.084-9.317-1.335a85.223 85.223 0 0 0-5.234-.21v-3.578h.893a4.434 4.434 0 0 0 3.155-1.307 4.435 4.435 0 0 0 1.308-3.156c0-.493-.4-.893-.892-.893h-5.357c-.493 0-.893.4-.893.893v8.04a85.09 85.09 0 0 0-5.234.211c-3.492.251-6.677.71-9.317 1.334v-3.336h.892a4.434 4.434 0 0 0 3.156-1.308 4.435 4.435 0 0 0 1.308-3.156c0-.493-.4-.893-.893-.893h-5.356c-.493 0-.893.4-.893.893v8.272c-3.732 1.11-5.624 2.53-5.624 4.227v16.069c0 1.358 1.215 2.544 3.61 3.526 3.85 1.578 9.646 2.291 13.831 2.554a86.239 86.239 0 0 0 10.825 0c4.14-.26 9.97-.97 13.832-2.554 2.396-.982 3.61-2.168 3.61-3.526V908.177c0-1.697-1.892-3.118-5.624-4.227Zm0-7.379h3.419a2.671 2.671 0 0 1-.633 1 2.66 2.66 0 0 1-1.893.785h-.893v-1.785Zm-16.337-1.786h3.419a2.671 2.671 0 0 1-.633 1.001 2.66 2.66 0 0 1-1.893.785h-.893v-1.786Zm-16.337 1.786h3.419a2.671 2.671 0 0 1-.633 1 2.66 2.66 0 0 1-1.894.785h-.892v-1.785Zm22.001 7.397c2.94.233 5.634.615 7.924 1.121l-3.962 2.83c-1.84-.254-3.966-.438-6.236-.54l2.274-3.411Zm-6.557-.255c1.513 0 3.021.04 4.502.118l-2.318 3.478a98.14 98.14 0 0 0-4.368 0l-2.318-3.478a85.041 85.041 0 0 1 4.502-.118Zm-6.557.255 2.274 3.41c-2.27.103-4.396.286-6.237.54l-3.96-2.829c2.29-.506 4.983-.888 7.923-1.121Zm-10.185 1.7 3.74 2.672c-.828.174-1.535.365-2.11.57-.792.283-1.839.757-2.05 1.648-3.025-.96-3.907-1.93-3.907-2.381 0-.464.926-1.496 4.327-2.509Zm4.869 22.16c-6.677-1.078-9.196-2.745-9.196-3.582v-2.777c.51.33 1.125.643 1.85.938 1.838.749 4.367 1.388 7.346 1.859v3.562Zm0-5.37c-2.722-.445-5.014-1.03-6.673-1.705-1.862-.758-2.523-1.478-2.523-1.864v-2.761c.504.328 1.111.638 1.825.931 1.838.754 4.375 1.394 7.37 1.863v3.535Zm0-5.343c-6.677-1.078-9.196-2.744-9.196-3.582v-2.755c1.321.86 3.371 1.601 6.141 2.217.953.211 1.979.402 3.055.57v3.55Zm5.624 11.363c-1.325-.1-2.61-.23-3.839-.39v-3.567c1.231.159 2.515.29 3.839.388v3.57Zm.1-5.352a70.235 70.235 0 0 1-3.939-.405v-3.547a76.38 76.38 0 0 0 5.826.504l-.092.085a6.214 6.214 0 0 0-1.795 3.363Zm-3.939-5.751v-3.557c2.87.364 6.011.57 9.195.603v3.57c-3.194-.033-6.34-.244-9.195-.616Zm14.552 11.217c-1.177.062-2.372.1-3.571.112v-2.673a.893.893 0 0 0-1.786 0v2.673a84.622 84.622 0 0 1-3.57-.112v-4.346a4.442 4.442 0 0 1 4.464-4.464c1.191 0 2.312.464 3.155 1.307a4.448 4.448 0 0 1 1.308 3.157v4.346Zm5.624-.505c-1.229.161-2.514.292-3.839.391v-3.569c1.324-.099 2.608-.23 3.839-.388v3.566Zm0-5.366a70.068 70.068 0 0 1-3.94.405 6.227 6.227 0 0 0-1.729-3.3c-.051-.05-.104-.1-.156-.148 2.014-.1 3.976-.27 5.825-.504v3.547Zm0-5.347c-2.854.373-6 .584-9.195.617v-3.57c3.186-.033 6.328-.24 9.195-.603v3.556Zm-10.088-4.734c-3.783 0-7.535-.25-10.848-.726a50.625 50.625 0 0 1-3.4-.599.894.894 0 0 0-.163-.08 5.22 5.22 0 0 1-.775-.35c2.369-1.29 9.828-1.705 12.557-1.78a95.81 95.81 0 0 1 5.259 0c2.967.082 5.74.3 8.017.635 2.87.42 4.065.89 4.535 1.146-.201.116-.54.276-1.1.464-1.013.213-2.1.402-3.23.564-3.312.475-7.065.726-10.852.726Zm21.069 11.606c0 .837-2.519 2.504-9.195 3.582v-3.562c2.978-.472 5.507-1.11 7.346-1.86.724-.294 1.34-.607 1.849-.938v2.778Zm0-5.357c0 .386-.66 1.106-2.523 1.864-1.658.676-3.95 1.26-6.672 1.704v-3.535c2.995-.47 5.532-1.11 7.37-1.863a10.985 10.985 0 0 0 1.825-.931v2.761Zm0-5.356c0 .838-2.519 2.504-9.195 3.582v-3.55c2.739-.427 6.884-1.28 9.195-2.785v2.753Zm-3.912-2.973c-.213-.903-1.288-1.382-2.103-1.668a16.672 16.672 0 0 0-2.054-.551l3.742-2.673c3.401 1.013 4.327 2.045 4.327 2.509 0 .46-.89 1.428-3.912 2.383Z" fill="#178a1f" fill-rule="evenodd" data-name="Path 46"/></g></g></g></svg>