<svg xmlns="http://www.w3.org/2000/svg" width="45" height="44.999" viewBox="634 1122 45 44.999"><g data-name="testimonial"><g data-name="Group 14"><g data-name="Group 13"><path d="M644.886 1128.296h-1.6c.241-1.781 1.226-1.87 1.679-1.912.453-.04.8-.42.8-.875v-2.63a.879.879 0 0 0-.929-.878c-2.778.157-6.09 1.56-6.09 7.355v4.574c0 .763.621 1.384 1.385 1.384h4.755c.763 0 1.385-.621 1.384-1.385v-4.248c0-.764-.62-1.385-1.384-1.385Zm-.373 5.26h-4.01v-4.2c0-4.044 1.8-5.174 3.503-5.492v.924c-1.177.358-2.531 1.416-2.531 4.387 0 .485.393.879.879.879h2.159v3.502Z" fill="#178a1f" fill-rule="evenodd" data-name="Path 47"/></g></g><g data-name="Group 16"><g data-name="Group 15"><path d="M653.871 1128.296h-1.599c.24-1.781 1.225-1.87 1.678-1.912.453-.04.8-.42.8-.875v-2.63a.88.88 0 0 0-.929-.878c-2.778.157-6.09 1.56-6.09 7.355v4.574c0 .763.622 1.384 1.385 1.384h4.755c.764 0 1.385-.621 1.385-1.385v-4.248c0-.764-.621-1.385-1.385-1.385Zm-.373 5.26h-4.009v-4.2c0-4.044 1.799-5.174 3.503-5.492v.924c-1.177.358-2.532 1.416-2.532 4.387 0 .485.394.879.88.879h2.158v3.502Z" fill="#178a1f" fill-rule="evenodd" data-name="Path 48"/></g></g><g data-name="Group 18"><g data-name="Group 17"><path d="M659.055 1129.1a.886.886 0 0 0-.621-.257.886.886 0 0 0-.622.258.886.886 0 0 0-.257.621c0 .231.094.458.257.622.164.163.39.257.622.257a.885.885 0 0 0 .621-.257.885.885 0 0 0 .258-.622.886.886 0 0 0-.258-.621Z" fill="#178a1f" fill-rule="evenodd" data-name="Path 49"/></g></g><g data-name="Group 20"><g data-name="Group 19"><path d="M663.379 1128.843h-1.108a.879.879 0 1 0 0 1.758h1.108c7.644 0 13.863 6.219 13.863 13.863 0 6.524-4.627 12.23-11.003 13.567a.879.879 0 0 0-.698.86v5.107l-5.414-5.413a.879.879 0 0 0-.621-.258h-9.885c-7.644 0-13.863-6.219-13.863-13.863 0-2.356.601-4.682 1.74-6.728a.879.879 0 1 0-1.537-.854 15.63 15.63 0 0 0-1.961 7.582c0 8.614 7.008 15.621 15.621 15.621h9.52l6.657 6.657a.879.879 0 0 0 1.5-.622v-6.532a15.684 15.684 0 0 0 8.158-5.216 15.647 15.647 0 0 0 3.544-9.908c0-8.613-7.008-15.62-15.621-15.62Z" fill="#178a1f" fill-rule="evenodd" data-name="Path 50"/></g></g><g data-name="Group 22"><g data-name="Group 21"><path d="M667.316 1137.6h-21.632a.879.879 0 1 0 0 1.757h21.632a.879.879 0 1 0 0-1.758Z" fill="#178a1f" fill-rule="evenodd" data-name="Path 51"/></g></g><g data-name="Group 24"><g data-name="Group 23"><path d="M667.316 1142.287h-21.632a.879.879 0 1 0 0 1.758h21.632a.879.879 0 0 0 0-1.758Z" fill="#178a1f" fill-rule="evenodd" data-name="Path 52"/></g></g><g data-name="Group 26"><g data-name="Group 25"><path d="M667.316 1146.974h-21.632a.879.879 0 0 0 0 1.758h21.632a.879.879 0 0 0 0-1.758Z" fill="#178a1f" fill-rule="evenodd" data-name="Path 53"/></g></g><g data-name="Group 28"><g data-name="Group 27"><path d="M667.316 1151.662h-11.53a.879.879 0 0 0 0 1.758h11.53a.879.879 0 0 0 0-1.758Z" fill="#178a1f" fill-rule="evenodd" data-name="Path 54"/></g></g><g data-name="Group 30"><g data-name="Group 29"><path d="M650.84 1151.662h-.014a.879.879 0 0 0 0 1.758h.014a.879.879 0 0 0 0-1.758Z" fill="#178a1f" fill-rule="evenodd" data-name="Path 55"/></g></g></g></svg>