<svg xmlns="http://www.w3.org/2000/svg" width="48.616" height="39.5" viewBox="1741.384 1619.106 48.616 39.5"><path d="M1790 1623.782a20.78 20.78 0 0 1-5.743 1.574 9.91 9.91 0 0 0 4.385-5.508 19.918 19.918 0 0 1-6.32 2.412 9.987 9.987 0 0 0-7.28-3.154c-5.518 0-9.96 4.479-9.96 9.97 0 .79.066 1.55.23 2.272-8.286-.404-15.617-4.375-20.543-10.425a10.034 10.034 0 0 0-1.364 5.038 9.981 9.981 0 0 0 4.427 8.283c-1.601-.03-3.172-.495-4.503-1.228v.11c0 4.843 3.455 8.866 7.985 9.793a9.947 9.947 0 0 1-2.613.328c-.638 0-1.282-.037-1.887-.17 1.291 3.947 4.956 6.849 9.313 6.943a20.026 20.026 0 0 1-12.358 4.25c-.817 0-1.6-.036-2.385-.136 4.415 2.847 9.647 4.472 15.29 4.472 18.34 0 28.367-15.192 28.367-28.36 0-.441-.015-.867-.036-1.289 1.978-1.404 3.64-3.157 4.995-5.175Z" fill="#03a9f4" fill-rule="evenodd" data-name="twitter"/></svg>